<svg xmlns="http://www.w3.org/2000/svg" viewBox="0 0 640 360" width="640" height="360"><defs><linearGradient id="s" x1="0" y1="0" x2="0" y2="1"><stop offset="0" stop-color="#C5D5E4"/><stop offset="1" stop-color="#F4F7FA"/></linearGradient></defs><rect width="640" height="360" fill="url(#s)"/><g fill="#D5DDE6"><ellipse cx="250" cy="150" rx="78" ry="36"/><ellipse cx="318" cy="138" rx="64" ry="40"/><ellipse cx="196" cy="156" rx="48" ry="28"/></g><g fill="#fff"><circle cx="200" cy="196" r="4"/><circle cx="248" cy="214" r="3.5"/><circle cx="292" cy="188" r="4"/><circle cx="336" cy="220" r="3"/><circle cx="170" cy="230" r="3"/><circle cx="380" cy="196" r="3.5"/><circle cx="430" cy="230" r="3"/></g><path fill="#E7EEF3" d="M0 280 C120 250 220 300 340 270 C460 240 540 280 640 256 L640 360 L0 360 Z"/><path fill="#D5E2EA" d="M0 310 C160 290 280 330 420 300 C520 284 580 310 640 296 L640 360 L0 360 Z"/></svg>
