<svg xmlns="http://www.w3.org/2000/svg" viewBox="0 0 640 360" width="640" height="360"><defs><linearGradient id="s" x1="0" y1="0" x2="0" y2="1"><stop offset="0" stop-color="#8EB8D4"/><stop offset="1" stop-color="#E4EEF4"/></linearGradient></defs><rect width="640" height="360" fill="url(#s)"/><g fill="#F7FBFE"><ellipse cx="180" cy="90" rx="70" ry="22"/><ellipse cx="360" cy="120" rx="90" ry="24"/><ellipse cx="500" cy="78" rx="60" ry="18"/></g><g stroke="#F4F8FB" stroke-width="4" stroke-linecap="round" fill="none"><path d="M40 180 H280"/><path d="M80 210 H420"/><path d="M20 240 H240"/></g><path fill="#3E9A56" d="M0 300 C40 250 70 280 90 250 C110 290 130 250 150 300 C180 250 200 280 230 250 C260 300 300 260 340 300 L0 360 Z"/><path fill="#2F7D46" d="M0 250 C80 220 140 268 220 240 C300 214 360 250 440 228 C520 206 580 236 640 214 L640 360 L0 360 Z"/></svg>
